<svg width="149" height="151" viewBox="0 0 149 151" fill="none" xmlns="http://www.w3.org/2000/svg">
<g clip-path="url(#clip0)">
<path d="M0.261719 147.303H148.804V150.5H0.261719V147.303Z" fill="#F47937"/>
<path d="M4.57858 101.957H3.9245L2.48551 123.358C2.28929 126.555 1.96225 127.207 0 127.664V128.316C1.04653 128.316 2.09306 128.186 3.205 128.186C4.31694 128.186 5.42888 128.316 6.41001 128.316V127.664C5.16725 127.533 4.12072 126.62 4.12072 124.01C4.12072 123.031 4.12072 121.335 4.18613 120.356L4.90562 108.677H5.10184L15.8288 127.468L25.0514 108.743H25.1822L25.9017 121.922C25.9671 122.509 26.0325 123.684 26.0325 125.119C26.0325 126.424 25.7054 127.533 24.2011 127.664V128.316C25.1168 128.316 26.2287 128.186 27.3406 128.186C28.6488 128.186 29.7608 128.316 30.8073 128.316V127.664C29.1721 127.403 28.9759 127.077 28.7796 124.075L27.7331 101.957H27.079L16.6791 123.227L4.57858 101.957Z" fill="white"/>
<path fill-rule="evenodd" clip-rule="evenodd" d="M30.5459 115.332C30.5459 122.966 36.2364 128.708 43.9546 128.708C51.6728 128.708 57.3633 122.901 57.3633 115.332C57.3633 107.699 51.6728 101.957 43.9546 101.957C36.2364 101.957 30.5459 107.764 30.5459 115.332ZM34.0779 115.332C34.0779 108.547 37.0213 103.131 43.9546 103.131C50.8879 103.131 53.8312 108.547 53.8312 115.332C53.8312 122.118 50.8879 127.533 43.9546 127.533C37.0213 127.599 34.0779 122.183 34.0779 115.332Z" fill="white"/>
<path fill-rule="evenodd" clip-rule="evenodd" d="M62.3997 109.852C62.3997 108.286 62.5305 106.263 62.5305 104.567C62.5305 103.392 62.8575 103.327 64.2965 103.327C68.548 103.327 70.8373 106.198 70.8373 109.852C70.8373 113.571 68.1556 116.05 64.0349 116.05C63.3808 116.05 62.7921 115.92 62.3342 115.854V109.852H62.3997ZM59.4563 125.446C59.4563 126.62 58.9984 127.664 57.6903 127.664V128.316C58.606 128.316 59.7179 128.186 60.8299 128.186C62.0726 128.186 63.1845 128.316 64.1657 128.316V127.664C62.9229 127.664 62.3997 126.555 62.3997 125.446V116.964C64.1657 117.159 65.343 118.008 66.2587 119.051L72.6033 126.75C72.7342 126.946 72.9304 127.207 72.9304 127.338C72.9304 127.403 72.7342 127.533 72.6033 127.599V128.251C73.5845 128.251 74.5656 128.121 75.4813 128.121C76.4624 128.121 77.4435 128.251 78.3593 128.251V127.599C77.4435 127.272 76.7895 127.011 76.0046 126.098L67.7631 116.572C70.9681 115.724 74.0423 113.31 74.0423 109.852C74.0423 104.11 69.2675 102.153 64.1003 102.153C62.138 102.153 58.933 102.349 57.167 102.349V103.001C58.8022 103.001 59.1946 103.98 59.1946 105.872C59.1946 108.547 59.3255 111.94 59.3255 115.267V125.446H59.4563Z" fill="white"/>
<path d="M100.402 121.4C100.402 120.226 100.86 119.835 101.972 119.835V119.182C100.925 119.247 99.8789 119.313 98.8323 119.313C97.7858 119.313 96.7393 119.247 95.6927 119.182V119.835C97.1317 119.9 97.3933 120.096 97.3933 121.531V125.185C97.3933 127.077 93.7305 127.599 92.2915 127.599C84.2463 127.599 79.4061 122.314 79.4061 114.354C79.4061 107.895 83.9192 103.197 90.3947 103.197C94.3846 103.197 96.9355 104.567 97.655 106.851L98.3091 106.981V102.544L97.1971 103.001C94.5154 102.218 92.9456 102.022 90.133 102.022C82.2186 102.022 75.874 107.046 75.874 115.267C75.874 124.467 83.1997 128.838 91.4412 128.838C94.5808 128.838 97.4587 127.599 100.337 127.468V121.4H100.402Z" fill="white"/>
<path fill-rule="evenodd" clip-rule="evenodd" d="M116.492 120.878L117.931 124.793C118.127 125.315 118.323 125.772 118.323 126.359C118.323 126.816 117.473 127.272 117.015 127.599V128.251C118.127 128.251 119.239 128.121 120.351 128.121C121.463 128.121 122.575 128.251 123.687 128.251V127.599C121.921 126.946 121.397 126.294 120.743 124.467L112.698 101.892H112.044L103.018 124.467C102.364 126.098 102.102 127.011 100.205 127.599V128.251C101.382 128.251 102.298 128.121 103.279 128.121C104.195 128.121 105.176 128.251 106.092 128.251V127.599C105.176 127.272 104.522 126.75 104.522 126.098C104.522 125.707 104.522 124.793 104.784 124.075L105.961 120.813H116.492V120.878ZM111.586 107.242L115.968 119.312H106.615L111.586 107.242Z" fill="white"/>
<path d="M124.603 124.728C124.603 126.62 124.145 127.142 122.248 127.599V128.251C123.164 128.251 124.276 128.121 125.649 128.121C126.761 128.121 127.808 128.251 129.051 128.251V127.599C126.892 127.142 126.434 126.62 126.434 122.705V108.547L145.533 128.251H146.384V105.937C146.384 104.045 146.842 103.523 148.869 103.066V102.414C147.823 102.414 146.711 102.544 145.599 102.544C144.552 102.544 143.44 102.414 142.001 102.414V103.066C144.421 103.523 144.879 104.045 144.879 110.57V122.836L128.92 106.329C127.677 105.089 126.63 103.653 125.453 102.414H124.603V124.728Z" fill="white"/>
<path d="M7.39115 133.797L7.32575 131.774C6.41003 131.84 5.49431 131.513 4.51319 131.513C2.15849 131.513 0.0654297 132.557 0.0654297 135.167C0.0654297 139.8 6.41003 137.842 6.41003 141.627C6.41003 143.192 5.16727 143.91 3.72829 143.91C2.48554 143.91 1.04655 143.388 0.654104 142.083H0.392471L0.457879 143.975C1.56982 144.302 2.68176 144.497 3.7937 144.497C6.01758 144.497 7.7182 143.258 7.7182 140.909C7.7182 136.603 1.37359 138.299 1.37359 134.449C1.37359 132.818 2.81258 132.035 4.25156 132.035C5.3635 132.035 6.67166 132.557 7.06411 133.732H7.39115V133.797Z" fill="white"/>
<path d="M12.8852 132.557L12.9506 142.931C12.9506 143.584 12.689 143.78 11.7078 144.041V144.367C12.3619 144.367 13.016 144.302 13.6701 144.302C14.3242 144.302 14.9782 144.367 15.6323 144.367V144.041C14.7166 143.78 14.3896 143.649 14.3896 142.931L14.455 132.557H17.0059C18.1832 132.557 18.5757 132.884 18.9027 133.797H19.2298L19.2952 131.513H19.2298C18.9681 131.644 18.5103 131.709 18.1832 131.709C16.6789 131.709 15.2399 131.774 13.7355 131.774C12.2311 131.774 10.7921 131.709 9.28772 131.709C8.96068 131.709 8.50282 131.579 8.24119 131.513H8.17578L8.24119 133.797H8.56823C8.89527 132.818 9.28772 132.557 10.4651 132.557H12.8852Z" fill="white"/>
<path fill-rule="evenodd" clip-rule="evenodd" d="M24.9203 140.713L25.6398 142.605C25.7052 142.866 25.836 143.062 25.836 143.388C25.836 143.584 25.4435 143.845 25.1819 143.975V144.302C25.7052 144.302 26.2938 144.236 26.8171 144.236C27.3404 144.236 27.929 144.302 28.4523 144.302V144.041C27.602 143.714 27.3404 143.388 27.0133 142.54L23.0888 131.579H22.7618L18.3794 142.54C18.0524 143.323 17.9216 143.78 17.0059 144.041V144.367C17.5945 144.367 18.0524 144.302 18.5102 144.302C18.9681 144.302 19.426 144.367 19.8838 144.367V144.041C19.426 143.91 19.0989 143.649 19.0989 143.323C19.0989 143.127 19.0989 142.67 19.2297 142.344L19.8184 140.778H24.9203V140.713ZM22.5656 134.123L24.724 139.995H20.2109L22.5656 134.123Z" fill="white"/>
<path d="M31.0688 132.557L31.1342 142.931C31.1342 143.584 30.8725 143.78 29.8914 144.041V144.367C30.5455 144.367 31.1996 144.302 31.8537 144.302C32.5078 144.302 33.1618 144.367 33.8159 144.367V144.041C32.9002 143.78 32.5732 143.649 32.5732 142.931L32.6386 132.557H35.1895C36.3668 132.557 36.7593 132.884 37.0863 133.797H37.4134L37.4788 131.513H37.4134C37.1517 131.644 36.6939 131.709 36.3668 131.709C34.8624 131.709 33.4235 131.774 31.9191 131.774C30.4147 131.774 28.9757 131.709 27.4713 131.709C27.1443 131.709 26.6864 131.579 26.4248 131.513H26.3594L26.4248 133.797H26.7518C27.0789 132.818 27.4713 132.557 28.6487 132.557H31.0688Z" fill="white"/>
<path d="M45.7854 131.513H45.4584C45.393 131.709 45.2622 131.774 44.8697 131.774H37.6748V132.101C38.5905 132.166 38.6559 132.296 38.6559 137.842V142.866C38.6559 143.649 38.3943 143.91 37.6748 143.975V144.236H43.4961C44.6735 144.236 45.2622 144.302 45.9162 144.367L46.1779 142.409L45.9162 142.344C45.5892 143.062 45.0659 143.584 43.954 143.584H40.2257V138.168H43.3653C44.3465 138.168 44.7389 138.429 44.9351 139.082H45.2622C45.2622 138.69 45.1968 138.299 45.1968 137.842C45.1968 137.451 45.2622 136.994 45.2622 136.603H44.9351C44.7389 137.255 44.4119 137.516 43.3653 137.516H40.2257V135.689C40.2257 134.645 40.2911 133.145 40.3565 132.362H43.1691C44.6735 132.362 45.3276 132.818 45.5238 133.667H45.7854V131.513Z" fill="white"/>
<path d="M60.8298 141.888C60.1103 142.997 58.2789 143.584 56.8399 143.584C55.4009 143.584 53.4386 142.671 53.4386 139.865L53.504 133.145C53.504 132.557 53.7003 132.035 54.3544 132.035V131.709C53.8311 131.709 53.3078 131.774 52.6537 131.774C52.0651 131.774 51.5418 131.709 50.9531 131.709V132.035C51.6072 132.035 51.8688 132.557 51.8688 133.145L51.9342 139.93C51.9342 142.866 53.7657 144.563 56.4474 144.563C58.148 144.563 59.5216 143.714 60.7644 142.866V143.78C60.7644 143.975 60.699 144.171 60.5681 144.236V144.367C61.026 144.367 61.4839 144.302 61.9417 144.302C62.3996 144.302 62.8574 144.367 63.3153 144.367V144.041C62.7266 144.041 62.2688 143.714 62.2688 142.931L62.3342 133.145C62.3342 132.557 62.5304 132.035 63.1191 132.035V131.709C62.6612 131.709 62.1379 131.774 61.4839 131.774C60.9606 131.774 60.3719 131.709 59.8487 131.709V132.035C60.5681 132.035 60.7644 132.557 60.7644 133.145L60.8298 141.888Z" fill="white"/>
<path d="M65.3424 142.605C65.3424 143.519 65.1462 143.78 64.2305 144.041V144.367C64.6883 144.367 65.2116 144.302 65.8657 144.302C66.3889 144.302 66.9122 144.367 67.5009 144.367V144.041C66.4543 143.78 66.2581 143.584 66.2581 141.692V134.841L75.5461 144.432H75.9385V133.601C75.9385 132.688 76.1348 132.427 77.1159 132.166V131.84C76.5926 131.84 76.0694 131.905 75.5461 131.905C75.0228 131.905 74.4996 131.84 73.7801 131.84V132.166C74.9574 132.427 75.1536 132.623 75.1536 135.82V141.757L67.4355 133.732C66.8468 133.145 66.3235 132.427 65.7349 131.84H65.3424V142.605Z" fill="white"/>
<path d="M81.368 131.774C80.8448 131.774 80.2561 131.84 79.6674 131.84C79.1442 131.84 78.5555 131.774 78.0322 131.774V132.101C78.7517 132.101 78.9479 132.623 78.9479 133.21L79.0134 142.997C79.0134 143.584 78.7517 144.106 78.2284 144.106V144.432C78.6209 144.432 79.1442 144.367 79.6674 144.367C80.2561 144.367 80.8448 144.432 81.1718 144.432V144.041C80.6486 144.041 80.3215 143.519 80.3215 142.931L80.3869 133.145C80.3869 132.557 80.5832 132.035 81.3026 132.035V131.774H81.368Z" fill="white"/>
<path d="M88.2353 144.563L93.0755 133.079C93.3372 132.427 93.5334 132.166 94.1875 132.101V131.774C93.6642 131.774 93.1409 131.84 92.6177 131.84C92.0944 131.84 91.5711 131.774 91.0479 131.774V132.101C91.6365 132.166 91.8328 132.362 91.8328 132.884C91.8328 133.014 91.7674 133.536 91.5711 134.058L88.3007 142.279L85.0957 133.145C84.9649 132.753 84.8995 132.557 84.8995 132.427C84.8995 132.231 85.3574 132.166 85.5536 132.101V131.774C84.9649 131.774 84.4416 131.84 83.853 131.84C83.2643 131.84 82.741 131.774 82.1523 131.774V132.101C82.6756 132.166 82.741 132.231 83.0681 132.949L87.712 144.563H88.2353Z" fill="white"/>
<path d="M102.56 131.513H102.233C102.167 131.709 102.037 131.774 101.644 131.774H94.4492V132.101C95.3649 132.166 95.4303 132.296 95.4303 137.842V142.866C95.4303 143.649 95.1687 143.91 94.4492 143.975V144.236H100.271C101.448 144.236 102.037 144.302 102.691 144.367L102.952 142.409L102.691 142.344C102.364 143.062 101.84 143.584 100.728 143.584H97.0001V138.168H100.14C101.121 138.168 101.513 138.429 101.71 139.082H102.037C102.037 138.69 101.971 138.299 101.971 137.842C101.971 137.451 102.037 136.994 102.037 136.603H101.71C101.513 137.255 101.186 137.516 100.14 137.516H97.0001V135.689C97.0001 134.645 97.0656 133.145 97.131 132.362H99.9435C101.448 132.362 102.102 132.818 102.298 133.667H102.625V131.513H102.56Z" fill="white"/>
<path fill-rule="evenodd" clip-rule="evenodd" d="M106.223 135.363C106.223 134.58 106.288 133.601 106.288 132.818C106.288 132.231 106.419 132.231 107.139 132.231C109.166 132.231 110.344 133.601 110.344 135.363C110.344 137.19 109.035 138.364 107.073 138.364C106.746 138.364 106.484 138.299 106.223 138.234V135.363ZM104.784 142.931C104.784 143.519 104.522 144.041 103.934 144.041V144.367C104.391 144.367 104.915 144.302 105.438 144.302C106.027 144.302 106.615 144.367 107.073 144.367V144.041C106.484 144.041 106.223 143.519 106.223 142.931V138.821C107.073 138.886 107.662 139.343 108.054 139.865L111.128 143.584C111.194 143.649 111.259 143.845 111.259 143.845C111.259 143.91 111.194 143.91 111.128 143.975V144.302C111.586 144.302 112.044 144.236 112.567 144.236C113.091 144.236 113.483 144.302 114.006 144.302V144.041C113.549 143.91 113.222 143.78 112.894 143.323L108.905 138.691C110.474 138.299 111.979 137.125 111.979 135.428C111.979 132.623 109.624 131.709 107.139 131.709C106.157 131.709 104.653 131.84 103.737 131.84V132.166C104.522 132.166 104.718 132.623 104.718 133.601C104.718 134.906 104.784 136.537 104.784 138.169V142.931Z" fill="white"/>
<path d="M121.267 133.797L121.202 131.774C120.286 131.84 119.37 131.513 118.389 131.513C116.034 131.513 113.941 132.557 113.941 135.167C113.941 139.8 120.286 137.842 120.286 141.627C120.286 143.192 119.043 143.91 117.604 143.91C116.362 143.91 114.923 143.388 114.53 142.083H114.203L114.268 143.975C115.38 144.302 116.492 144.497 117.604 144.497C119.828 144.497 121.529 143.258 121.529 140.909C121.529 136.603 115.184 138.299 115.184 134.449C115.184 132.818 116.623 132.035 118.062 132.035C119.174 132.035 120.482 132.557 120.875 133.732H121.267V133.797Z" fill="white"/>
<path d="M126.238 131.774C125.715 131.774 125.126 131.84 124.538 131.84C124.014 131.84 123.426 131.774 122.902 131.774V132.101C123.622 132.101 123.818 132.623 123.818 133.21L123.883 142.997C123.883 143.584 123.622 144.106 123.099 144.106V144.432C123.491 144.432 124.014 144.367 124.538 144.367C125.126 144.367 125.715 144.432 126.042 144.432V144.041C125.519 144.041 125.192 143.519 125.192 142.931L125.257 133.145C125.257 132.557 125.453 132.035 126.173 132.035V131.774H126.238Z" fill="white"/>
<path d="M131.732 132.557L131.797 142.931C131.797 143.584 131.536 143.78 130.554 144.041V144.367C131.209 144.367 131.863 144.302 132.517 144.302C133.171 144.302 133.825 144.367 134.479 144.367V144.041C133.563 143.78 133.302 143.649 133.302 142.931L133.367 132.557H135.918C137.095 132.557 137.488 132.884 137.815 133.797H138.142L138.207 131.513H138.011C137.749 131.644 137.292 131.709 136.964 131.709C135.46 131.709 134.021 131.774 132.517 131.774C131.012 131.774 129.573 131.709 128.069 131.709C127.742 131.709 127.284 131.579 127.022 131.513H126.892L126.957 133.797H127.284C127.611 132.818 128.004 132.557 129.181 132.557H131.732Z" fill="white"/>
<path d="M142.721 142.931C142.721 143.519 142.459 144.041 141.805 144.041V144.367C142.329 144.367 142.852 144.302 143.441 144.302C144.029 144.302 144.618 144.367 145.076 144.367V144.041C144.422 144.041 144.16 143.519 144.16 142.931V138.168L145.861 135.493C146.515 134.384 148.085 132.362 149 132.101V131.774C148.542 131.774 148.085 131.84 147.561 131.84C147.103 131.84 146.646 131.774 146.122 131.774V132.101C146.384 132.166 146.711 132.231 146.711 132.557C146.711 132.688 146.58 133.014 146.319 133.471L143.637 137.777L141.021 133.406C140.89 133.145 140.759 132.818 140.759 132.753C140.759 132.427 141.02 132.296 141.413 132.166V131.84C140.824 131.84 140.301 131.905 139.712 131.905C139.124 131.905 138.6 131.84 138.012 131.84V132.166C138.535 132.362 138.993 132.818 139.451 133.471L142.656 138.625V142.931H142.721Z" fill="white"/>
<path d="M73.9113 88.5818L104.719 99.7388H93.3375L73.9113 91.6483L57.5592 97.7162L47.6172 99.6083L73.9113 88.5818Z" fill="white"/>
<path d="M67.8936 63.4621C67.8936 59.9389 70.7715 57.1333 74.2382 57.1333C77.7702 57.1333 80.5828 60.0041 80.5828 63.4621C80.5828 65.4848 79.667 67.2464 78.1627 68.4208C78.7513 67.5726 79.2092 66.072 79.2092 64.9628C79.2092 61.831 76.6583 59.2864 73.5187 59.2864C70.8369 59.2864 68.4822 61.5048 67.8936 63.9841C67.8936 63.8536 67.8936 63.6579 67.8936 63.4621Z" fill="#F47937"/>
<path d="M72.3418 60.3303L74.2386 66.3982L76.0701 61.57L74.2386 62.9402L72.3418 60.3303Z" fill="#F47937"/>
<path d="M60.6335 72.2703L58.6712 55.6979L57.036 57.3291V72.2051L60.6335 72.2703ZM70.7064 6.89408C70.7064 6.89408 71.7529 5.9154 72.4724 4.54524C73.7806 1.93541 74.0422 0.5 74.0422 0.5L73.9114 6.04589L76.1352 6.76359C76.1352 6.76359 74.9579 7.41605 73.9114 7.61179V8.78621C73.9114 8.78621 72.0145 9.7649 71.0988 11.2656C70.2485 12.701 70.3793 15.376 70.3793 15.376H76.0044C76.0044 15.376 76.0044 14.0711 76.0044 13.5492C76.0044 13.0272 75.7428 11.5918 75.612 10.9393C75.2195 9.96064 74.8271 9.24293 74.8271 9.24293C74.8271 9.24293 77.8359 11.5918 78.0975 15.376V15.8328L79.8635 17.0724C79.7981 16.6157 79.7981 16.0937 79.7327 15.376C79.4711 13.2229 79.0132 12.44 79.0132 12.44C79.0132 12.44 80.4522 13.2229 81.4987 16.8767C81.6949 17.5291 81.7604 18.1164 81.8258 18.5078L83.2648 20.9219L77.6396 17.3334H70.4447L67.3705 20.5957L70.5101 18.9646H77.5742L83.1339 22.7488L81.1717 26.0111L81.1063 23.075L77.051 20.8567L71.0334 20.9872L67.1089 23.6622V36.3852L68.6133 35.4065H69.5944V28.5557C69.5944 28.5557 69.6598 28.2294 69.529 27.838C69.4636 27.316 69.0057 26.8593 68.4825 26.8593C68.6787 26.4026 69.1366 25.9458 69.8561 25.9458C71.2296 25.9458 71.295 27.5117 71.295 27.5117L71.3604 35.6675H74.1076V26.6635C74.1076 26.6635 74.173 26.4026 74.0422 26.1416C73.9768 25.4891 73.4535 24.9672 72.7994 24.9672H72.6686C72.9302 24.5104 73.4535 23.9232 74.3038 23.9232C75.939 23.9232 75.939 25.5544 75.939 25.5544L76.0044 35.6022H78.5554V28.5557C78.5554 28.5557 78.5554 28.2947 78.4899 28.0337C78.4899 27.3813 78.0321 26.9245 77.4434 26.8593C77.6396 26.4026 78.0321 25.9458 78.6862 25.9458C79.9289 25.9458 79.9943 27.5117 79.9943 27.5117L80.0597 36.6462L83.6572 40.4957L78.7516 37.8858L69.5944 38.5383L66.0624 40.8871V41.9311L68.3517 40.7566H79.4711L84.9 44.7366L79.4057 42.8445L69.3328 43.6274L64.885 45.9763V46.955H89.5439L84.7691 48.3904L60.9605 49.8258L61.68 50.7392L90.198 51.0002L94.3842 55.8284L91.1137 59.4169L90.9829 55.5674L89.3477 52.9576L62.5303 54.654V72.2703L85.6849 72.5966L86.993 55.3717L88.0396 72.5966L96.6734 72.7271L91.4408 74.293L54.6159 75.6631L54.4851 77.0985H100.99L96.6734 84.7975L96.4118 79.0559L51.1493 80.4913V90.5391L50.8223 90.6696L73.7806 81.9267L121.529 99.6083L115.446 99.6736L73.9114 85.0585L38.4601 99.6736H26.9482L47.421 91.9093L45.3934 77.1638H50.299L49.7103 72.1398L54.3543 72.2051L53.3078 58.2425L51.2147 55.5022L58.5404 46.955H61.68L61.353 44.4104L63.3806 43.3665L62.9228 39.3212L64.8196 38.0816L64.2964 26.1416L63.3152 25.4891L63.2498 20.8567L65.4083 18.8993C65.4083 18.8993 65.3429 15.2455 66.8473 12.8967C68.6787 10.0259 70.641 9.50391 71.8183 9.04719V7.4813C71.2296 7.15507 70.7064 6.89408 70.7064 6.89408Z" fill="white"/>
</g>
<defs>
<clipPath id="clip0">
<rect width="149" height="150" fill="white" transform="translate(0 0.5)"/>
</clipPath>
</defs>
</svg>
