<svg width="223" height="62" viewBox="0 0 223 62" fill="none" xmlns="http://www.w3.org/2000/svg">
<g clip-path="url(#clip0)">
<path d="M220.902 58.502H65.8613V61.8237H220.902V58.502Z" fill="#F47936"/>
<path fill-rule="evenodd" clip-rule="evenodd" d="M70.3383 10.9853H69.6162L68.1719 33.3712C67.9553 36.7652 67.5942 37.4151 65.5723 37.8484V38.5705C66.7277 38.5705 67.8109 38.4261 68.894 38.4261C70.0494 38.4261 71.2049 38.5705 72.288 38.5705V37.8484C70.9882 37.704 69.905 36.7652 69.905 34.0211C69.905 33.0101 69.905 31.2048 69.9772 30.1938L70.6994 17.9899H70.916L82.109 37.6317L91.7132 17.9899H91.8577L92.652 31.7825C92.7242 32.4324 92.7964 33.6601 92.7964 35.1043C92.7964 36.4763 92.5076 37.6317 90.8467 37.7762V38.4983C91.7854 38.4983 93.0131 38.3539 94.0962 38.3539C95.4683 38.3539 96.6237 38.4983 97.7791 38.4983V37.7762C96.046 37.4873 95.8293 37.1263 95.6849 34.0211L94.5295 10.9131H93.8796L82.9755 33.1546L70.3383 10.9853Z" fill="white"/>
<path fill-rule="evenodd" clip-rule="evenodd" d="M97.4902 25.0675C97.4902 33.0109 103.412 39.0767 111.499 39.0767C119.587 39.0767 125.509 33.0109 125.509 25.0675C125.509 17.1241 119.587 11.0583 111.499 11.0583C103.412 10.986 97.4902 17.0519 97.4902 25.0675ZM101.173 25.0675C101.173 17.9907 104.206 12.2859 111.499 12.2859C118.793 12.2859 121.826 17.9907 121.826 25.0675C121.826 32.1443 118.793 37.8491 111.499 37.8491C104.278 37.8491 101.173 32.1443 101.173 25.0675Z" fill="white"/>
<path fill-rule="evenodd" clip-rule="evenodd" d="M130.78 19.2901C130.78 17.6292 130.925 15.5351 130.925 13.7297C130.925 12.5021 131.213 12.4299 132.802 12.4299C137.207 12.4299 139.662 15.3906 139.662 19.2179C139.662 23.1174 136.846 25.717 132.586 25.717C131.863 25.717 131.286 25.5726 130.78 25.5004V19.2901ZM127.675 35.5379C127.675 36.7656 127.17 37.8488 125.87 37.8488V38.5709C126.809 38.5709 128.036 38.4265 129.192 38.4265C130.491 38.4265 131.647 38.5709 132.658 38.5709V37.8488C131.358 37.8488 130.852 36.6933 130.852 35.5379V26.728C132.73 26.9447 133.885 27.8112 134.824 28.9666L141.468 37.0544C141.612 37.2711 141.757 37.5599 141.757 37.7043C141.757 37.7765 141.54 37.921 141.468 37.9932V38.7153C142.479 38.7153 143.49 38.5709 144.501 38.5709C145.512 38.5709 146.523 38.7153 147.534 38.7153V37.9932C146.595 37.7043 145.873 37.3433 145.078 36.4045L136.485 26.4392C139.807 25.5726 143.056 23.0452 143.056 19.4345C143.056 13.4409 138.074 11.4189 132.658 11.4189C130.564 11.4189 127.242 11.6356 125.364 11.6356V12.3577C127.097 12.3577 127.531 13.3687 127.531 15.3906C127.531 18.2069 127.675 21.7453 127.675 25.2115V35.5379Z" fill="white"/>
<path fill-rule="evenodd" clip-rule="evenodd" d="M170.352 31.3493C170.352 30.1217 170.858 29.6884 172.013 29.6884V28.9663C170.93 29.0385 169.847 29.1107 168.764 29.1107C167.681 29.1107 166.597 29.0385 165.514 28.9663V29.6884C167.031 29.7606 167.319 29.9773 167.319 31.4215V35.2488C167.319 37.1985 163.492 37.7762 161.976 37.7762C153.527 37.7762 148.544 32.2159 148.544 23.9114C148.544 17.1234 153.31 12.213 160.026 12.213C164.214 12.213 166.814 13.6572 167.608 16.0402L168.33 16.1847V11.5631L167.175 12.0685C164.359 11.2742 162.698 10.9854 159.809 10.9854C151.505 10.9854 144.861 16.2569 144.861 24.8502C144.861 34.4544 152.444 39.0038 161.109 39.0038C164.359 39.0038 167.392 37.704 170.425 37.5596V31.3493H170.352Z" fill="white"/>
<path fill-rule="evenodd" clip-rule="evenodd" d="M187.178 30.8438L188.694 34.8877C188.911 35.4654 189.128 35.9709 189.128 36.5486C189.128 36.9819 188.261 37.4874 187.756 37.8484V38.5706C188.911 38.5706 190.067 38.4261 191.222 38.4261C192.377 38.4261 193.533 38.5706 194.688 38.5706V37.8484C192.811 37.1263 192.305 36.4764 191.655 34.5989L183.206 10.9854H182.556L173.169 34.5989C172.447 36.332 172.23 37.2707 170.28 37.8484V38.5706C171.508 38.5706 172.519 38.4261 173.53 38.4261C174.469 38.4261 175.48 38.5706 176.491 38.5706V37.8484C175.552 37.4874 174.83 36.9819 174.83 36.2598C174.83 35.8987 174.83 34.8877 175.119 34.1656L176.346 30.7716L187.178 30.8438ZM182.123 16.5457L186.673 29.1829H176.924L182.123 16.5457Z" fill="white"/>
<path fill-rule="evenodd" clip-rule="evenodd" d="M195.627 34.8881C195.627 36.8378 195.194 37.4155 193.172 37.921V38.6431C194.111 38.6431 195.266 38.4987 196.71 38.4987C197.866 38.4987 198.949 38.6431 200.249 38.6431V37.921C198.01 37.4155 197.505 36.8378 197.505 32.7939V17.9903L217.58 38.5709H218.446V15.2463C218.446 13.2965 218.88 12.7188 221.046 12.2133V11.4912C219.891 11.4912 218.807 11.6356 217.652 11.6356C216.497 11.6356 215.413 11.4912 213.897 11.4912V12.2133C216.424 12.7188 216.858 13.2965 216.858 20.0845V32.9384L200.176 15.6073C198.877 14.3075 197.793 12.791 196.494 11.4912H195.627V34.8881Z" fill="white"/>
<path fill-rule="evenodd" clip-rule="evenodd" d="M73.2991 44.3479L73.2269 42.2537C72.2159 42.3259 71.2772 41.9648 70.3384 41.9648C67.8832 41.9648 65.7168 43.048 65.7168 45.7921C65.7168 50.6304 72.3604 48.5362 72.3604 52.5801C72.3604 54.241 71.0605 54.9631 69.5441 54.9631C68.3165 54.9631 66.8 54.3854 66.3667 53.0856H66.0056L66.0779 55.0353C67.2333 55.3964 68.3887 55.613 69.5441 55.613C71.8549 55.613 73.6602 54.3132 73.6602 51.858C73.6602 47.3808 67.0166 49.1139 67.0166 45.07C67.0166 43.3369 68.4609 42.5425 70.0496 42.5425C71.205 42.5425 72.577 43.1202 73.0103 44.3479H73.2991Z" fill="white"/>
<path fill-rule="evenodd" clip-rule="evenodd" d="M79.0755 43.048L79.1478 53.8799C79.1478 54.602 78.8589 54.7465 77.8479 55.0353V55.3964C78.4978 55.3964 79.22 55.3242 79.8699 55.3242C80.5198 55.3242 81.2419 55.3964 81.8918 55.3964V55.0353C80.8809 54.8187 80.6642 54.602 80.6642 53.8799L80.7364 43.048H83.4083C84.6359 43.048 85.0692 43.3369 85.358 44.3479H85.7191L85.7913 41.9648H85.7191C85.4303 42.1093 84.997 42.1815 84.6359 42.1815C83.1195 42.1815 81.5308 42.2537 80.0143 42.2537C78.4978 42.2537 76.9092 42.1815 75.3927 42.1815C75.0316 42.1815 74.5984 42.0371 74.3095 41.9648H74.2373L74.3095 44.3479H74.6706C75.0316 43.3369 75.3927 43.048 76.6203 43.048H79.0755Z" fill="white"/>
<path fill-rule="evenodd" clip-rule="evenodd" d="M91.5692 51.5691L92.2913 53.5188C92.3635 53.8077 92.508 54.0243 92.508 54.3131C92.508 54.5298 92.0747 54.8186 91.8581 54.9631V55.3241C92.4358 55.3241 93.0135 55.2519 93.5912 55.2519C94.1689 55.2519 94.7466 55.3241 95.3243 55.3241V54.9631C94.3855 54.602 94.1689 54.3131 93.8078 53.3744L89.6917 41.8926H89.4028L84.8534 53.3744C84.4924 54.1687 84.3479 54.6742 83.4092 54.9631V55.3241C83.9869 55.3241 84.4924 55.2519 84.9979 55.2519C85.5033 55.2519 85.9366 55.3241 86.4421 55.3241V54.9631C85.9366 54.8186 85.6478 54.5298 85.6478 54.2409C85.6478 54.0243 85.6478 53.591 85.7922 53.23L86.3699 51.5691H91.5692ZM89.114 44.7089L91.3526 50.8469H86.5865L89.114 44.7089Z" fill="white"/>
<path fill-rule="evenodd" clip-rule="evenodd" d="M97.9955 43.048L98.0677 53.8799C98.0677 54.602 97.7788 54.7465 96.7679 55.0353V55.3964C97.4178 55.3964 98.1399 55.3242 98.7898 55.3242C99.4397 55.3242 100.162 55.3964 100.812 55.3964V55.0353C99.8008 54.8187 99.5842 54.602 99.5842 53.8799L99.6564 43.048H102.328C103.556 43.048 103.989 43.3369 104.278 44.3479H104.639L104.711 41.9648H104.639C104.35 42.1093 103.917 42.1815 103.556 42.1815C102.039 42.1815 100.451 42.2537 98.9342 42.2537C97.4178 42.2537 95.8291 42.1815 94.3126 42.1815C93.9516 42.1815 93.5183 42.0371 93.2294 41.9648H93.1572L93.2294 44.3479H93.5905C93.9516 43.3369 94.3126 43.048 95.5402 43.048H97.9955Z" fill="white"/>
<path fill-rule="evenodd" clip-rule="evenodd" d="M113.377 41.9648H113.015C112.943 42.1815 112.799 42.2537 112.366 42.2537H104.855V42.6148C105.866 42.687 105.939 42.8314 105.939 48.6806V53.8799C105.939 54.6743 105.65 54.9631 104.855 55.0353V55.3242H110.921C112.149 55.3242 112.799 55.3964 113.449 55.4686L113.738 53.4466L113.449 53.3744C113.088 54.0966 112.582 54.6743 111.355 54.6743H107.455V48.9695H110.777C111.86 48.9695 112.221 49.1861 112.366 49.9082H112.727C112.727 49.475 112.654 49.0417 112.654 48.6084C112.654 48.1751 112.727 47.7419 112.727 47.3808H112.366C112.149 48.1029 111.788 48.3196 110.777 48.3196H107.455V46.442C107.455 45.3588 107.527 43.7702 107.6 42.9758H110.56C112.149 42.9758 112.871 43.4813 113.015 44.3479H113.377V41.9648Z" fill="white"/>
<path fill-rule="evenodd" clip-rule="evenodd" d="M129.119 52.7968C128.397 53.9522 126.448 54.6022 124.931 54.6022C123.415 54.6022 121.32 53.6634 121.32 50.7027L121.393 43.6981C121.393 43.1204 121.609 42.5426 122.331 42.5426V42.1816C121.754 42.1816 121.248 42.2538 120.598 42.2538C120.021 42.2538 119.443 42.1816 118.865 42.1816V42.5426C119.587 42.5426 119.876 43.1204 119.876 43.6981L119.948 50.7749C119.948 53.8078 121.898 55.6131 124.642 55.6131C126.448 55.6131 127.82 54.6744 129.119 53.8078V54.7466C129.119 54.9632 129.047 55.1076 128.903 55.2521V55.3965C129.408 55.3965 129.842 55.3243 130.347 55.3243C130.853 55.3243 131.286 55.3965 131.791 55.3965V55.0354C131.141 55.0354 130.708 54.6744 130.708 53.88L130.78 43.6258C130.78 43.0481 130.997 42.4704 131.575 42.4704V42.1094C131.069 42.1094 130.564 42.1816 129.914 42.1816C129.336 42.1816 128.758 42.1094 128.181 42.1094V42.4704C128.903 42.4704 129.119 43.0481 129.119 43.6258V52.7968Z" fill="white"/>
<path fill-rule="evenodd" clip-rule="evenodd" d="M133.741 53.5912C133.741 54.53 133.525 54.8188 132.586 55.0355V55.3965C133.091 55.3965 133.597 55.3243 134.319 55.3243C134.897 55.3243 135.402 55.3965 136.052 55.3965V55.0355C134.969 54.8188 134.752 54.53 134.752 52.5803V45.359L144.429 55.3965H144.862V43.987C144.862 43.0482 145.079 42.7593 146.09 42.5427V42.1816C145.512 42.1816 145.006 42.2539 144.429 42.2539C143.851 42.2539 143.346 42.1816 142.623 42.1816V42.5427C143.851 42.7593 144.068 43.0482 144.068 46.37V52.5803L135.98 44.2036C135.33 43.5537 134.825 42.8316 134.175 42.1816H133.741V53.5912Z" fill="white"/>
<path fill-rule="evenodd" clip-rule="evenodd" d="M150.567 42.1816C149.989 42.1816 149.411 42.2539 148.761 42.2539C148.184 42.2539 147.606 42.1816 147.028 42.1816V42.5427C147.75 42.5427 147.967 43.1204 147.967 43.6981L148.039 53.9523C148.039 54.53 147.75 55.1077 147.245 55.1077V55.4688C147.606 55.4688 148.184 55.3965 148.761 55.3965C149.411 55.3965 149.989 55.4688 150.35 55.4688V55.1077C149.772 55.1077 149.484 54.53 149.484 53.9523L149.556 43.6981C149.556 43.1204 149.772 42.5427 150.495 42.5427V42.1816H150.567Z" fill="white"/>
<path fill-rule="evenodd" clip-rule="evenodd" d="M157.715 55.6132L162.77 43.6259C163.059 42.9038 163.275 42.6149 163.925 42.5427V42.1816C163.348 42.1816 162.842 42.2539 162.264 42.2539C161.687 42.2539 161.181 42.1816 160.604 42.1816V42.5427C161.253 42.6149 161.398 42.7593 161.398 43.337C161.398 43.4815 161.326 44.0592 161.181 44.5647L157.715 53.158L154.321 43.6259C154.177 43.1926 154.104 42.976 154.104 42.9038C154.104 42.6871 154.61 42.6149 154.827 42.5427V42.1816C154.249 42.1816 153.671 42.2539 153.093 42.2539C152.516 42.2539 151.938 42.1816 151.36 42.1816V42.5427C151.866 42.6149 152.01 42.6871 152.299 43.4093L157.137 55.541H157.715V55.6132Z" fill="white"/>
<path fill-rule="evenodd" clip-rule="evenodd" d="M172.664 41.9648H172.303C172.23 42.1815 172.086 42.2537 171.653 42.2537H164.143V42.6148C165.154 42.687 165.226 42.8314 165.226 48.6806V53.8799C165.226 54.6743 164.937 54.9631 164.143 55.0353V55.3242H170.208C171.436 55.3242 172.086 55.3964 172.736 55.4686L173.025 53.4466L172.736 53.3744C172.375 54.0966 171.869 54.6743 170.642 54.6743H166.742V48.9695H170.064C171.147 48.9695 171.508 49.1861 171.653 49.9082H172.014C172.014 49.475 171.942 49.0417 171.942 48.6084C171.942 48.1751 172.014 47.7419 172.014 47.3808H171.653C171.436 48.1029 171.075 48.3196 170.064 48.3196H166.742V46.442C166.742 45.3588 166.814 43.7702 166.887 42.9758H169.847C171.436 42.9758 172.158 43.4813 172.303 44.3479H172.664V41.9648Z" fill="white"/>
<path fill-rule="evenodd" clip-rule="evenodd" d="M176.491 46.0088C176.491 45.2145 176.563 44.2035 176.563 43.3369C176.563 42.7592 176.708 42.687 177.502 42.687C179.669 42.687 180.824 44.1313 180.824 46.0088C180.824 47.8863 179.452 49.1862 177.358 49.1862C176.997 49.1862 176.708 49.1139 176.491 49.0417V46.0088ZM174.975 53.88C174.975 54.4577 174.758 55.0354 174.108 55.0354V55.3964C174.614 55.3964 175.119 55.3242 175.697 55.3242C176.347 55.3242 176.924 55.3964 177.358 55.3964V55.0354C176.708 55.0354 176.491 54.4577 176.491 53.88V49.5472C177.43 49.6194 178.008 50.0527 178.441 50.6304L181.691 54.5299C181.763 54.6021 181.835 54.7465 181.835 54.8187C181.835 54.891 181.763 54.891 181.691 54.9632V55.3242C182.196 55.3242 182.701 55.252 183.135 55.252C183.64 55.252 184.146 55.3242 184.579 55.3242V54.9632C184.146 54.8187 183.785 54.6743 183.424 54.1688L179.235 49.3306C180.824 48.8973 182.413 47.6697 182.413 45.9366C182.413 43.0481 179.957 42.0371 177.358 42.0371C176.347 42.0371 174.758 42.1815 173.819 42.1815V42.5426C174.614 42.5426 174.83 43.0481 174.83 43.9868C174.83 45.3589 174.903 47.092 174.903 48.7529V53.88H174.975Z" fill="white"/>
<path fill-rule="evenodd" clip-rule="evenodd" d="M192.16 44.3479L192.088 42.2537C191.077 42.3259 190.139 41.9648 189.2 41.9648C186.745 41.9648 184.578 43.048 184.578 45.7921C184.578 50.6304 191.222 48.5362 191.222 52.5801C191.222 54.241 189.922 54.9631 188.405 54.9631C187.178 54.9631 185.661 54.3854 185.228 53.0856H184.867L184.939 55.0353C186.095 55.3964 187.25 55.613 188.405 55.613C190.716 55.613 192.521 54.3132 192.521 51.858C192.521 47.3808 185.878 49.1139 185.878 45.07C185.878 43.3369 187.322 42.5425 188.911 42.5425C190.066 42.5425 191.438 43.1202 191.872 44.3479H192.16Z" fill="white"/>
<path fill-rule="evenodd" clip-rule="evenodd" d="M197.361 42.1816C196.783 42.1816 196.205 42.2539 195.555 42.2539C194.978 42.2539 194.4 42.1816 193.822 42.1816V42.5427C194.544 42.5427 194.761 43.1204 194.761 43.6981L194.833 53.9523C194.833 54.53 194.544 55.1077 194.039 55.1077V55.4688C194.4 55.4688 194.978 55.3965 195.555 55.3965C196.205 55.3965 196.783 55.4688 197.144 55.4688V55.1077C196.566 55.1077 196.277 54.53 196.277 53.9523L196.35 43.6981C196.35 43.1204 196.566 42.5427 197.288 42.5427V42.1816H197.361Z" fill="white"/>
<path fill-rule="evenodd" clip-rule="evenodd" d="M203.065 43.048L203.137 53.8799C203.137 54.602 202.848 54.7465 201.837 55.0353V55.3964C202.487 55.3964 203.209 55.3242 203.859 55.3242C204.509 55.3242 205.231 55.3964 205.881 55.3964V55.0353C204.87 54.8187 204.653 54.602 204.653 53.8799L204.726 43.048H207.397C208.625 43.048 209.058 43.3369 209.347 44.3479H209.708L209.78 41.9648H209.636C209.347 42.1093 208.914 42.1815 208.553 42.1815C207.036 42.1815 205.448 42.2537 203.931 42.2537C202.415 42.2537 200.826 42.1815 199.31 42.1815C198.949 42.1815 198.515 42.0371 198.226 41.9648H198.082L198.154 44.3479H198.515C198.876 43.3369 199.237 43.048 200.465 43.048H203.065Z" fill="white"/>
<path fill-rule="evenodd" clip-rule="evenodd" d="M214.619 53.88C214.619 54.4577 214.402 55.0354 213.68 55.0354V55.3965C214.258 55.3965 214.763 55.3243 215.341 55.3243C215.991 55.3243 216.568 55.3965 217.074 55.3965V55.0354C216.424 55.0354 216.135 54.4577 216.135 53.88V48.8974L217.94 46.0811C218.663 44.9257 220.251 42.8315 221.19 42.4704V42.1094C220.684 42.1094 220.179 42.1816 219.746 42.1816C219.24 42.1816 218.735 42.1094 218.301 42.1094V42.4704C218.59 42.5427 218.951 42.6149 218.951 42.9759C218.951 43.1204 218.807 43.4814 218.518 43.9147L215.702 48.3919L212.958 43.7703C212.813 43.4814 212.741 43.1926 212.741 43.0481C212.741 42.6871 212.958 42.5427 213.391 42.4704V42.1094C212.813 42.1094 212.236 42.1816 211.658 42.1816C211.08 42.1816 210.503 42.1094 209.925 42.1094V42.4704C210.503 42.6871 211.008 43.1203 211.369 43.8425L214.691 49.2584V53.88H214.619Z" fill="white"/>
<path fill-rule="evenodd" clip-rule="evenodd" d="M218.446 53.4459H218.952V52.8682H217.291V53.4459H217.796V55.3234H218.446V53.4459Z" fill="white"/>
<path fill-rule="evenodd" clip-rule="evenodd" d="M219.024 55.3234H219.674L219.891 53.9514L220.469 55.3234H220.685L221.263 53.9514L221.48 55.3234H222.057L221.696 52.8682H221.119L220.541 54.168L220.108 52.8682H219.458L219.024 55.3234Z" fill="white"/>
<path fill-rule="evenodd" clip-rule="evenodd" d="M29.9715 55.1074L49.0356 61.9676H42.031L29.9715 56.985L19.8617 60.74L13.7236 61.8954L29.9715 55.1074Z" fill="white"/>
<path d="M26.2891 39.5088C26.2891 37.3424 28.0222 35.5371 30.2608 35.5371C32.4271 35.5371 34.2324 37.2702 34.2324 39.5088C34.2324 40.7364 33.6547 41.8918 32.716 42.6139C33.077 42.0362 33.3659 41.1697 33.3659 40.4476C33.3659 38.4978 31.7772 36.9091 29.8275 36.9091C28.1666 36.9091 26.7223 38.2812 26.3613 39.7977C26.2891 39.7254 26.2891 39.6532 26.2891 39.5088Z" fill="#F47936"/>
<path fill-rule="evenodd" clip-rule="evenodd" d="M29.0332 37.5605L30.1886 41.3156L31.344 38.2827L30.1886 39.1492L29.0332 37.5605Z" fill="#F47936"/>
<path d="M21.7396 44.9253L20.512 34.6712L19.501 35.6821V44.9253H21.7396ZM28.0221 4.41408C28.0221 4.41408 28.672 3.83637 29.1053 2.96982C29.8996 1.38115 30.0441 0.442383 30.0441 0.442383L29.9718 3.83637L31.3439 4.26965C31.3439 4.26965 30.6218 4.63071 29.9718 4.77514V5.49726C29.9718 5.49726 28.8164 6.07497 28.2387 7.01373C27.661 7.88028 27.8055 9.54117 27.8055 9.54117H31.2717C31.2717 9.54117 31.2717 8.74683 31.2717 8.38577C31.2717 8.09692 31.1272 7.15815 31.055 6.79709C30.7662 6.36382 30.5495 5.93054 30.5495 5.93054C30.5495 5.93054 32.4271 7.37479 32.5715 9.75781V10.0467L33.6547 10.841C33.6547 10.5521 33.5825 10.2633 33.5825 9.83002C33.438 8.45798 33.1492 8.02471 33.1492 8.02471C33.1492 8.02471 34.0158 8.53019 34.6657 10.7688C34.8101 11.2021 34.8101 11.5631 34.8823 11.7798L35.7489 13.2962L32.2826 11.0576H27.8055L25.8557 13.0796L27.8055 12.0686H32.2104L35.6766 14.3794L34.449 16.4014V14.5961L31.9216 13.224L28.2387 13.2962L25.7835 14.9571V22.9005L26.7223 22.3228H27.3722V17.9178C27.3722 17.9178 27.3722 17.7012 27.3 17.4846C27.3 17.1235 27.0111 16.9069 26.6501 16.9069C26.7945 16.618 27.0111 16.3292 27.5166 16.3292C28.3832 16.3292 28.3832 17.2679 28.3832 17.2679V22.3228H30.1163V16.7624C30.1163 16.7624 30.1163 16.618 30.1163 16.4736C30.1163 16.0403 29.7552 15.7515 29.3219 15.7515H29.2497C29.3941 15.4626 29.7552 15.1015 30.2607 15.1015C31.2717 15.1015 31.2717 16.1125 31.2717 16.1125V22.3228H32.8603V17.9178C32.8603 17.9178 32.8603 17.7734 32.8603 17.5568C32.8603 17.1235 32.5715 16.8346 32.2104 16.8346C32.3549 16.5458 32.5715 16.2569 33.0048 16.2569C33.7991 16.2569 33.7991 17.1957 33.7991 17.1957V22.8283L36.0377 25.2113L33.0048 23.6226L27.3722 24.0559L25.2058 25.5002V26.1501L26.6501 25.4279H33.5103L36.9043 27.8832L33.5103 26.7278L27.0833 27.161L24.3393 28.6053V29.183H39.5761L36.6154 30.0495L21.884 30.9883L22.3173 31.566L39.9372 31.7104L42.5368 34.6712L40.5149 36.9097L40.4427 34.5267L39.4317 32.938L22.8228 34.0212V44.9253L37.1209 45.142L37.9152 34.4545L38.5651 45.2142L43.9089 45.2864L40.6593 46.2252L17.9123 47.0917L17.8401 47.9583H46.5807L43.9089 52.7243L43.7644 49.1859L15.746 50.1246V56.2627L15.5293 56.3349L29.7552 50.9912L59.2902 61.9675L55.5351 62.0397L29.9718 52.8687L8.09143 61.8953H0.942383L13.5796 57.0571L12.2798 47.8861H15.3127L14.9516 44.7809L17.8401 44.8531L17.1902 36.1876L15.8904 34.5267L20.4398 29.2552H22.3895L22.1729 27.6665L23.4005 27.0166L23.1116 24.4892L24.267 23.6948L24.0504 16.3292L23.4727 15.8959V13.0074L24.8447 11.7798C24.8447 11.7798 24.7725 9.54117 25.7113 8.02471C26.8667 6.21939 28.0221 5.93054 28.8164 5.64169V4.70293C28.311 4.5585 28.0221 4.41408 28.0221 4.41408Z" fill="white"/>
</g>
<defs>
<clipPath id="clip0">
<rect width="221.115" height="61.5251" fill="white" transform="translate(0.942383 0.442383)"/>
</clipPath>
</defs>
</svg>
